# ProBuilder 4.4.0
# https://unity3d.com/unity/features/worldbuilding/probuilder
# 1/7/2021 2:45:12 PM

mtllib ./Cone.mtl
o Cone

g Cone
v 0 0 0
v 0.02905816 0 0.2393157
v 1 3.79 0
v 1 0 0
v 0.114544 0 0.4647232
v 0.2514892 0 0.6631226
v 0.4319353 0 0.8229839
v 0.645395 0 0.9350162
v 0.8794632 0 0.9927089
v 1.120537 0 0.9927089
v 1.354605 0 0.9350162
v 1.568065 0 0.8229839
v 1.748511 0 0.6631228
v 1.885456 0 0.4647233
v 1.970942 0 0.2393159
v 2 0 -8.742278E-08
v 1.970942 0 -0.2393158
v 1.885456 0 -0.4647232
v 1.748511 0 -0.6631228
v 1.568065 0 -0.8229837
v 1.354605 0 -0.9350162
v 1.120537 0 -0.9927089
v 0.8794637 0 -0.9927089
v 0.6453954 0 -0.9350163
v 0.4319354 0 -0.822984
v 0.251489 0 -0.6631224
v 0.1145442 0 -0.4647236
v 0.02905828 0 -0.239316

vt 0 0
vt 0.2410734 3.464654E-10
vt 0.1205366 3.917853
vt 0.02905816 0.2393157
vt 1 0
vt 0.114544 0.4647232
vt 0.2514892 0.6631226
vt 0.4319353 0.8229839
vt 0.645395 0.9350162
vt 0.8794632 0.9927089
vt 1.120537 0.9927089
vt 1.354605 0.9350162
vt 1.568065 0.8229839
vt 1.748511 0.6631228
vt 1.885456 0.4647233
vt 1.970942 0.2393159
vt 2 -8.742278E-08
vt 1.970942 -0.2393158
vt 1.885456 -0.4647232
vt 1.748511 -0.6631228
vt 1.568065 -0.8229837
vt 1.354605 -0.9350162
vt 1.120537 -0.9927089
vt 0.8794637 -0.9927089
vt 0.6453954 -0.9350163
vt 0.4319354 -0.822984
vt 0.251489 -0.6631224
vt 0.1145442 -0.4647236
vt 0.02905828 -0.239316

vn -0.9603134 0.2533809 0.1166031
vn 0 -1 0
vn -0.9045035 0.2533808 0.343033
vn -0.7961271 0.2533809 0.549527
vn -0.6414827 0.2533809 0.7240843
vn -0.4495578 0.2533809 0.8565605
vn -0.2315061 0.2533809 0.9392567
vn 0 0.2533809 0.9673666
vn 0.2315061 0.2533809 0.9392567
vn 0.4495577 0.2533809 0.8565606
vn 0.6414827 0.2533809 0.7240844
vn 0.7961271 0.2533809 0.549527
vn 0.9045034 0.2533809 0.3430332
vn 0.9603134 0.2533809 0.1166031
vn 0.9603134 0.2533808 -0.1166033
vn 0.9045035 0.2533809 -0.3430328
vn 0.7961268 0.2533809 -0.5495272
vn 0.6414828 0.2533808 -0.7240842
vn 0.4495578 0.2533809 -0.8565605
vn 0.231506 0.2533809 -0.9392567
vn 2.391788E-07 0.2533808 -0.9673666
vn -0.2315057 0.2533809 -0.9392568
vn -0.4495575 0.2533809 -0.8565607
vn -0.6414828 0.2533808 -0.7240843
vn -0.796127 0.2533809 -0.5495269
vn -0.9045033 0.2533809 -0.3430334
vn -0.9603134 0.2533808 -0.1166033

usemtl ProBuilderDefault
f 1/1/1 2/2/1 3/3/1
f 4/5/2 2/4/2 1/1/2
f 2/1/3 5/2/3 3/3/3
f 4/5/2 5/6/2 2/4/2
f 5/1/4 6/2/4 3/3/4
f 4/5/2 6/7/2 5/6/2
f 6/1/5 7/2/5 3/3/5
f 4/5/2 7/8/2 6/7/2
f 7/1/6 8/2/6 3/3/6
f 4/5/2 8/9/2 7/8/2
f 8/1/7 9/2/7 3/3/7
f 4/5/2 9/10/2 8/9/2
f 9/1/8 10/2/8 3/3/8
f 4/5/2 10/11/2 9/10/2
f 10/1/9 11/2/9 3/3/9
f 4/5/2 11/12/2 10/11/2
f 11/1/10 12/2/10 3/3/10
f 4/5/2 12/13/2 11/12/2
f 12/1/11 13/2/11 3/3/11
f 4/5/2 13/14/2 12/13/2
f 13/1/12 14/2/12 3/3/12
f 4/5/2 14/15/2 13/14/2
f 14/1/13 15/2/13 3/3/13
f 4/5/2 15/16/2 14/15/2
f 15/1/14 16/2/14 3/3/14
f 4/5/2 16/17/2 15/16/2
f 16/1/15 17/2/15 3/3/15
f 4/5/2 17/18/2 16/17/2
f 17/1/16 18/2/16 3/3/16
f 4/5/2 18/19/2 17/18/2
f 18/1/17 19/2/17 3/3/17
f 4/5/2 19/20/2 18/19/2
f 19/1/18 20/2/18 3/3/18
f 4/5/2 20/21/2 19/20/2
f 20/1/19 21/2/19 3/3/19
f 4/5/2 21/22/2 20/21/2
f 21/1/20 22/2/20 3/3/20
f 4/5/2 22/23/2 21/22/2
f 22/1/21 23/2/21 3/3/21
f 4/5/2 23/24/2 22/23/2
f 23/1/22 24/2/22 3/3/22
f 4/5/2 24/25/2 23/24/2
f 24/1/23 25/2/23 3/3/23
f 4/5/2 25/26/2 24/25/2
f 25/1/24 26/2/24 3/3/24
f 4/5/2 26/27/2 25/26/2
f 26/1/25 27/2/25 3/3/25
f 4/5/2 27/28/2 26/27/2
f 27/1/26 28/2/26 3/3/26
f 4/5/2 28/29/2 27/28/2
f 28/1/27 1/2/27 3/3/27
f 4/5/2 1/1/2 28/29/2

